<svg width="10" height="10" viewBox="0 0 10 10" fill="none" xmlns="http://www.w3.org/2000/svg">
<path fill-rule="evenodd" clip-rule="evenodd" d="M1.18991 1.62207C0.742003 1.62207 0.378906 1.98517 0.378906 2.43307V7.29906C0.378906 7.74698 0.742003 8.11006 1.18991 8.11006H5.2449C5.69282 8.11006 6.0559 7.74698 6.0559 7.29906V6.15835C6.0559 6.12595 6.09199 6.10661 6.11896 6.12458L7.85847 7.28426C8.12796 7.46394 8.4889 7.27076 8.4889 6.94689V2.78525C8.4889 2.46138 8.12796 2.26821 7.85847 2.44786L6.11896 3.60754C6.09199 3.62551 6.0559 3.60619 6.0559 3.5738V2.43307C6.0559 1.98517 5.69282 1.62207 5.2449 1.62207H1.18991Z" fill="#707070"/>
</svg>
