<svg width="62" height="13" viewBox="0 0 62 13" fill="none" xmlns="http://www.w3.org/2000/svg">
<rect x="-2.86523" width="64" height="12.165" rx="2.43301" fill="white"/>
<path fill-rule="evenodd" clip-rule="evenodd" d="M1.18991 2.83887C0.742003 2.83887 0.378906 3.20196 0.378906 3.64987V8.51586C0.378906 8.96378 0.742003 9.32686 1.18991 9.32686H5.2449C5.69282 9.32686 6.0559 8.96378 6.0559 8.51586V7.37515C6.0559 7.34275 6.09199 7.32341 6.11896 7.34137L7.85847 8.50106C8.12796 8.68074 8.4889 8.48756 8.4889 8.16369V4.00205C8.4889 3.67818 8.12796 3.485 7.85847 3.66465L6.11896 4.82434C6.09199 4.8423 6.0559 4.82299 6.0559 4.7906V3.64987C6.0559 3.20196 5.69282 2.83887 5.2449 2.83887H1.18991Z" fill="#707070"/>
<g clip-path="url(#clip0_48_2)">
<path d="M16.3977 5.47966V5.76478C16.3977 6.15682 16.3466 6.50846 16.2444 6.81972C16.1422 7.13097 15.9961 7.39589 15.806 7.61448C15.6183 7.83308 15.3926 8.00058 15.1289 8.11701C14.8652 8.23105 14.5729 8.28808 14.2522 8.28808C13.9338 8.28808 13.6427 8.23105 13.379 8.11701C13.1176 8.00058 12.8907 7.83308 12.6983 7.61448C12.5058 7.39589 12.3561 7.13097 12.2492 6.81972C12.1447 6.50846 12.0924 6.15682 12.0924 5.76478V5.47966C12.0924 5.08763 12.1447 4.73717 12.2492 4.42829C12.3537 4.11704 12.5011 3.85211 12.6911 3.63352C12.8836 3.41256 13.1105 3.24505 13.3719 3.131C13.6356 3.01458 13.9266 2.95637 14.245 2.95637C14.5658 2.95637 14.858 3.01458 15.1218 3.131C15.3855 3.24505 15.6124 3.41256 15.8025 3.63352C15.9926 3.85211 16.1387 4.11704 16.2409 4.42829C16.3454 4.73717 16.3977 5.08763 16.3977 5.47966ZM15.5031 5.76478V5.47254C15.5031 5.18267 15.4746 4.92725 15.4176 4.70628C15.3629 4.48294 15.281 4.29642 15.1717 4.14674C15.0647 3.99467 14.9329 3.88063 14.7761 3.80459C14.6192 3.72619 14.4422 3.68698 14.245 3.68698C14.0478 3.68698 13.872 3.72619 13.7176 3.80459C13.5631 3.88063 13.4313 3.99467 13.322 4.14674C13.215 4.29642 13.1331 4.48294 13.076 4.70628C13.019 4.92725 12.9905 5.18267 12.9905 5.47254V5.76478C12.9905 6.05465 13.019 6.31126 13.076 6.5346C13.1331 6.75794 13.2162 6.94683 13.3255 7.10127C13.4372 7.25334 13.5702 7.36857 13.7247 7.44698C13.8791 7.52301 14.0549 7.56103 14.2522 7.56103C14.4517 7.56103 14.6287 7.52301 14.7832 7.44698C14.9376 7.36857 15.0683 7.25334 15.1752 7.10127C15.2821 6.94683 15.3629 6.75794 15.4176 6.5346C15.4746 6.31126 15.5031 6.05465 15.5031 5.76478ZM18.0585 5.18385V8.2168H17.1996V4.36057H18.0086L18.0585 5.18385ZM17.9052 6.14613L17.6272 6.14256C17.6296 5.86932 17.6676 5.61866 17.7413 5.39056C17.8173 5.16247 17.9219 4.96645 18.0549 4.80251C18.1903 4.63856 18.3519 4.51264 18.5396 4.42473C18.7273 4.33444 18.9364 4.2893 19.1669 4.2893C19.3522 4.2893 19.5197 4.31543 19.6694 4.3677C19.8215 4.4176 19.951 4.49957 20.0579 4.61362C20.1672 4.72766 20.2503 4.87616 20.3073 5.05911C20.3644 5.23969 20.3929 5.46184 20.3929 5.72558V8.2168H19.5304V5.72201C19.5304 5.53669 19.5031 5.39056 19.4484 5.28364C19.3962 5.17435 19.3189 5.09713 19.2168 5.05199C19.117 5.00447 18.9922 4.98071 18.8426 4.98071C18.6952 4.98071 18.5634 5.01159 18.447 5.07337C18.3305 5.13515 18.2319 5.21949 18.1511 5.32641C18.0727 5.43333 18.0121 5.55688 17.9694 5.69707C17.9266 5.83725 17.9052 5.98694 17.9052 6.14613ZM22.1891 2.74253V8.2168H21.3266V2.74253H22.1891ZM24.0495 4.36057V8.2168H23.187V4.36057H24.0495ZM23.13 3.34841C23.13 3.21773 23.1728 3.10962 23.2583 3.02408C23.3462 2.93617 23.4674 2.89222 23.6218 2.89222C23.7739 2.89222 23.8939 2.93617 23.9818 3.02408C24.0697 3.10962 24.1137 3.21773 24.1137 3.34841C24.1137 3.47671 24.0697 3.58363 23.9818 3.66916C23.8939 3.7547 23.7739 3.79747 23.6218 3.79747C23.4674 3.79747 23.3462 3.7547 23.2583 3.66916C23.1728 3.58363 23.13 3.47671 23.13 3.34841ZM25.8422 5.18385V8.2168H24.9833V4.36057H25.7923L25.8422 5.18385ZM25.689 6.14613L25.411 6.14256C25.4133 5.86932 25.4514 5.61866 25.525 5.39056C25.601 5.16247 25.7056 4.96645 25.8386 4.80251C25.9741 4.63856 26.1356 4.51264 26.3233 4.42473C26.511 4.33444 26.7201 4.2893 26.9506 4.2893C27.1359 4.2893 27.3034 4.31543 27.4531 4.3677C27.6052 4.4176 27.7347 4.49957 27.8416 4.61362C27.9509 4.72766 28.034 4.87616 28.0911 5.05911C28.1481 5.23969 28.1766 5.46184 28.1766 5.72558V8.2168H27.3141V5.72201C27.3141 5.53669 27.2868 5.39056 27.2322 5.28364C27.1799 5.17435 27.1027 5.09713 27.0005 5.05199C26.9007 5.00447 26.776 4.98071 26.6263 4.98071C26.479 4.98071 26.3471 5.01159 26.2307 5.07337C26.1143 5.13515 26.0157 5.21949 25.9349 5.32641C25.8565 5.43333 25.7959 5.55688 25.7531 5.69707C25.7103 5.83725 25.689 5.98694 25.689 6.14613ZM30.7534 8.28808C30.4682 8.28808 30.2105 8.24174 29.98 8.14908C29.7519 8.05404 29.5571 7.92217 29.3955 7.75348C29.2363 7.58479 29.1139 7.38639 29.0284 7.1583C28.9429 6.9302 28.9001 6.68429 28.9001 6.42055V6.27799C28.9001 5.97624 28.9441 5.70301 29.032 5.45828C29.1199 5.21355 29.2422 5.00447 29.3991 4.83102C29.5559 4.6552 29.7412 4.52095 29.955 4.42829C30.1689 4.33563 30.4005 4.2893 30.65 4.2893C30.9256 4.2893 31.1668 4.33563 31.3735 4.42829C31.5802 4.52095 31.7513 4.65163 31.8867 4.82033C32.0245 4.98665 32.1267 5.18504 32.1932 5.41551C32.2621 5.64598 32.2966 5.90021 32.2966 6.1782V6.54529H29.3171V5.92872H31.4483V5.86101C31.4436 5.70657 31.4127 5.56163 31.3557 5.4262C31.301 5.29077 31.2167 5.18148 31.1026 5.09832C30.9886 5.01516 30.8365 4.97358 30.6464 4.97358C30.5039 4.97358 30.3768 5.00447 30.2651 5.06624C30.1558 5.12564 30.0643 5.21236 29.9907 5.32641C29.917 5.44046 29.86 5.57827 29.8196 5.73983C29.7816 5.89902 29.7626 6.07841 29.7626 6.27799V6.42055C29.7626 6.58925 29.7852 6.74606 29.8303 6.891C29.8778 7.03356 29.9467 7.1583 30.037 7.26522C30.1273 7.37213 30.2366 7.45648 30.3649 7.51826C30.4932 7.57766 30.6393 7.60736 30.8033 7.60736C31.01 7.60736 31.1941 7.56578 31.3557 7.48262C31.5172 7.39946 31.6574 7.28185 31.7762 7.12978L32.2288 7.56815C32.1457 7.68933 32.0376 7.80575 31.9045 7.91742C31.7715 8.02672 31.6087 8.11582 31.4163 8.18472C31.2262 8.25362 31.0052 8.28808 30.7534 8.28808ZM38.2662 7.50757V8.2168H35.5113V7.50757H38.2662ZM35.7643 3.02765V8.2168H34.8698V3.02765H35.7643ZM37.9063 5.19455V5.89308H35.5113V5.19455H37.9063ZM38.2484 3.02765V3.74044H35.5113V3.02765H38.2484ZM40.0732 7.53608L41.0176 4.36057H41.9086L40.5686 8.2168H40.0126L40.0732 7.53608ZM39.3497 4.36057L40.3119 7.55033L40.3583 8.2168H39.8023L38.4551 4.36057H39.3497ZM44.0898 8.28808C43.8046 8.28808 43.5468 8.24174 43.3164 8.14908C43.0883 8.05404 42.8935 7.92217 42.7319 7.75348C42.5727 7.58479 42.4503 7.38639 42.3648 7.1583C42.2793 6.9302 42.2365 6.68429 42.2365 6.42055V6.27799C42.2365 5.97624 42.2804 5.70301 42.3684 5.45828C42.4563 5.21355 42.5786 5.00447 42.7354 4.83102C42.8923 4.6552 43.0776 4.52095 43.2914 4.42829C43.5053 4.33563 43.7369 4.2893 43.9864 4.2893C44.262 4.2893 44.5032 4.33563 44.7099 4.42829C44.9166 4.52095 45.0877 4.65163 45.2231 4.82033C45.3609 4.98665 45.4631 5.18504 45.5296 5.41551C45.5985 5.64598 45.633 5.90021 45.633 6.1782V6.54529H42.6535V5.92872H44.7847V5.86101C44.78 5.70657 44.7491 5.56163 44.6921 5.4262C44.6374 5.29077 44.5531 5.18148 44.439 5.09832C44.325 5.01516 44.1729 4.97358 43.9828 4.97358C43.8403 4.97358 43.7132 5.00447 43.6015 5.06624C43.4922 5.12564 43.4007 5.21236 43.3271 5.32641C43.2534 5.44046 43.1964 5.57827 43.156 5.73983C43.118 5.89902 43.099 6.07841 43.099 6.27799V6.42055C43.099 6.58925 43.1215 6.74606 43.1667 6.891C43.2142 7.03356 43.2831 7.1583 43.3734 7.26522C43.4637 7.37213 43.573 7.45648 43.7013 7.51826C43.8296 7.57766 43.9757 7.60736 44.1397 7.60736C44.3464 7.60736 44.5305 7.56578 44.6921 7.48262C44.8536 7.39946 44.9938 7.28185 45.1126 7.12978L45.5652 7.56815C45.4821 7.68933 45.374 7.80575 45.2409 7.91742C45.1079 8.02672 44.9451 8.11582 44.7527 8.18472C44.5626 8.25362 44.3416 8.28808 44.0898 8.28808ZM47.1548 5.18385V8.2168H46.2959V4.36057H47.1049L47.1548 5.18385ZM47.0015 6.14613L46.7235 6.14256C46.7259 5.86932 46.7639 5.61866 46.8376 5.39056C46.9136 5.16247 47.0182 4.96645 47.1512 4.80251C47.2866 4.63856 47.4482 4.51264 47.6359 4.42473C47.8236 4.33444 48.0327 4.2893 48.2632 4.2893C48.4485 4.2893 48.616 4.31543 48.7657 4.3677C48.9178 4.4176 49.0473 4.49957 49.1542 4.61362C49.2635 4.72766 49.3466 4.87616 49.4036 5.05911C49.4607 5.23969 49.4892 5.46184 49.4892 5.72558V8.2168H48.6267V5.72201C48.6267 5.53669 48.5994 5.39056 48.5447 5.28364C48.4925 5.17435 48.4152 5.09713 48.3131 5.05199C48.2133 5.00447 48.0885 4.98071 47.9389 4.98071C47.7915 4.98071 47.6597 5.01159 47.5433 5.07337C47.4268 5.13515 47.3282 5.21949 47.2474 5.32641C47.169 5.43333 47.1084 5.55688 47.0657 5.69707C47.0229 5.83725 47.0015 5.98694 47.0015 6.14613ZM52.1337 4.36057V4.98783H49.9596V4.36057H52.1337ZM50.5869 3.41612H51.4458V7.15117C51.4458 7.26997 51.4624 7.36144 51.4957 7.42559C51.5313 7.48737 51.5801 7.52895 51.6418 7.55033C51.7036 7.57172 51.7761 7.58241 51.8592 7.58241C51.9186 7.58241 51.9757 7.57885 52.0303 7.57172C52.0849 7.56459 52.1289 7.55746 52.1622 7.55033L52.1657 8.2061C52.0945 8.22749 52.0113 8.2465 51.9163 8.26313C51.8236 8.27976 51.7167 8.28808 51.5955 8.28808C51.3983 8.28808 51.2237 8.25362 51.0716 8.18472C50.9195 8.11344 50.8007 7.99821 50.7152 7.83902C50.6297 7.67982 50.5869 7.46836 50.5869 7.20463V3.41612Z" fill="#707070"/>
</g>
<defs>
<clipPath id="clip0_48_2">
<rect width="44.536" height="9.73199" fill="white" transform="translate(11.7324 1.2168)"/>
</clipPath>
</defs>
</svg>
